<svg width="30" height="28" viewBox="0 0 30 28" fill="none" xmlns="http://www.w3.org/2000/svg">
<path d="M0.974186 27.4041H4.87424C5.4123 27.4041 5.84843 26.9679 5.84843 26.4299V9.38282C5.84843 8.84471 5.4123 8.40863 4.87424 8.40863H0.974186C0.436077 8.40863 0 8.84471 0 9.38282V26.4299C0 26.9679 0.436077 27.4041 0.974186 27.4041Z" fill="#181C2C"/>
<path d="M0.974186 5.41165H4.87424C5.4123 5.41165 5.84843 4.97551 5.84843 4.43746V0.974187C5.84843 0.436132 5.4123 0 4.87424 0H0.974186C0.436077 0 0 0.436132 0 0.974187V4.43746C0 4.97551 0.436077 5.41165 0.974186 5.41165Z" fill="#181C2C"/>
<path d="M28.5326 10.3859C27.9846 9.66449 27.1765 9.07124 26.108 8.60624C25.0395 8.14156 23.86 7.90906 22.5696 7.90906C19.95 7.90906 17.7302 8.90881 15.9104 10.9087C15.5483 11.3066 15.2851 11.2196 15.2851 10.6815V9.38282C15.2851 8.84471 14.8489 8.40863 14.3108 8.40863H10.827C10.2889 8.40863 9.85278 8.84471 9.85278 9.38282V26.4299C9.85278 26.9679 10.2889 27.4041 10.827 27.4041H14.727C15.2651 27.4041 15.7012 26.9679 15.7012 26.4299V20.5014C15.7012 18.0315 15.8504 16.3386 16.1486 15.4229C16.4468 14.5072 16.9985 13.7718 17.8033 13.2168C18.6081 12.6617 19.5169 12.3841 20.5299 12.3841C21.3208 12.3841 21.9973 12.5784 22.5593 12.967C23.1213 13.3556 23.5272 13.9 23.777 14.6008C24.0268 15.3016 24.1517 16.8452 24.1517 19.2319V26.4298C24.1517 26.9679 24.5877 27.4041 25.1258 27.4041H29.0259C29.5639 27.4041 30 26.9679 30 26.4298V16.7758C30 15.0692 29.8924 13.7579 29.6776 12.8421C29.4627 11.9264 29.081 11.1076 28.5326 10.3859Z" fill="#181C2C"/>
</svg>
