<svg width="30" height="30" viewBox="0 0 30 30" fill="none" xmlns="http://www.w3.org/2000/svg">
<path d="M19.4452 18.1846L18.8759 18.784C18.8759 18.784 17.5226 20.2087 13.8289 16.3199C10.1351 12.431 11.4884 11.0063 11.4884 11.0063L11.8469 10.6289C12.7301 9.69905 12.8134 8.20621 12.0428 7.11637L10.4666 4.88701C9.51285 3.53813 7.66995 3.35994 6.57681 4.5108L4.61481 6.57642C4.07279 7.14707 3.70956 7.88681 3.75361 8.70742C3.8663 10.8068 4.76339 15.3237 9.7692 20.594C15.0776 26.1827 20.0585 26.4049 22.0954 26.2039C22.7396 26.1402 23.2999 25.7929 23.7514 25.3175L25.5271 23.448C26.7257 22.1861 26.3877 20.0227 24.8541 19.14L22.466 17.7654C21.459 17.1857 20.2322 17.356 19.4452 18.1846Z" fill="#1B1A55"/>
<path d="M16.5744 2.34979C16.6571 1.83868 17.1402 1.49197 17.6514 1.5747C17.683 1.58077 17.7849 1.59979 17.8381 1.61167C17.9449 1.63543 18.0936 1.67199 18.2791 1.72603C18.6501 1.83408 19.1684 2.01209 19.7904 2.29725C21.0357 2.8682 22.693 3.86695 24.4127 5.5867C26.1325 7.30645 27.1312 8.96371 27.7021 10.2091C27.9874 10.8311 28.1654 11.3493 28.2734 11.7203C28.3274 11.9058 28.364 12.0546 28.3877 12.1613C28.3996 12.2146 28.4084 12.2574 28.4144 12.2891L28.4216 12.3281C28.5042 12.8391 28.1607 13.3424 27.6496 13.4251C27.14 13.5076 26.6599 13.1625 26.5751 12.6539C26.5725 12.6401 26.5652 12.6035 26.5576 12.5689C26.5421 12.4996 26.5155 12.3899 26.4732 12.2447C26.3886 11.9542 26.2417 11.5226 25.9977 10.9905C25.5105 9.92759 24.6342 8.45987 23.0869 6.91253C21.5396 5.3652 20.0719 4.48897 19.009 4.00168C18.4769 3.75773 18.0452 3.61082 17.7547 3.52622C17.6096 3.48393 17.4271 3.44204 17.3579 3.42663C16.8491 3.34184 16.4919 2.85944 16.5744 2.34979Z" fill="#1B1A55"/>
<path fill-rule="evenodd" clip-rule="evenodd" d="M16.8571 6.66164C16.9993 6.16379 17.5182 5.87552 18.0161 6.01776L17.7586 6.91919C18.0161 6.01776 18.0161 6.01776 18.0161 6.01776L18.018 6.01828L18.0198 6.01883L18.024 6.02004L18.0337 6.02294L18.0585 6.03064C18.0772 6.03667 18.1008 6.04452 18.1288 6.05448C18.185 6.07441 18.2592 6.10273 18.3502 6.14173C18.5323 6.21978 18.7811 6.34031 19.0868 6.52119C19.6986 6.88329 20.5338 7.48477 21.5151 8.46598C22.4963 9.44721 23.0977 10.2824 23.4598 10.8943C23.6407 11.1999 23.7612 11.4487 23.8393 11.6308C23.8783 11.7218 23.9067 11.796 23.9266 11.8522C23.9366 11.8802 23.9443 11.9038 23.9505 11.9226L23.9581 11.9474L23.961 11.9571L23.9622 11.9612L23.9627 11.9631C23.9627 11.9631 23.9633 11.9649 23.0618 12.2225L23.9633 11.9649C24.1056 12.4628 23.8172 12.9816 23.3195 13.1239C22.8258 13.2649 22.3115 12.9828 22.1641 12.4927L22.1595 12.4792C22.1528 12.4604 22.1391 12.4234 22.116 12.3694C22.0697 12.2615 21.9858 12.085 21.8463 11.8492C21.5676 11.3783 21.0642 10.6668 20.1892 9.79181C19.3143 8.91687 18.6027 8.41349 18.1318 8.13478C17.8961 7.99526 17.7196 7.91138 17.6116 7.86513C17.5576 7.84199 17.5206 7.82819 17.5018 7.82153L17.4883 7.81692C16.9983 7.66957 16.7161 7.15526 16.8571 6.66164Z" fill="#1B1A55"/>
</svg>
