<svg width="25" height="31" viewBox="0 0 25 31" fill="none" xmlns="http://www.w3.org/2000/svg">
<path d="M13.7146 15.1334C13.3323 15.261 12.9245 15.3319 12.5 15.3319C12.0755 15.3319 11.6677 15.261 11.2854 15.1334C8.50867 15.5894 7.05542 17.6302 7.05542 20.1068H12.5H17.9446C17.9446 17.6302 16.4916 15.5894 13.7146 15.1334Z" fill="#1B1A55"/>
<path d="M12.5 14.4495C14.146 14.4495 15.4799 13.1149 15.4799 11.4691V10.6238C15.4799 8.97793 14.146 7.64374 12.5 7.64374C10.8539 7.64374 9.52002 8.97793 9.52002 10.6238V11.4691C9.52002 13.1149 10.8539 14.4495 12.5 14.4495Z" fill="#1B1A55"/>
<path d="M19.8452 0H5.15375C2.31241 0 0 2.31289 0 5.15476V25.5712C0 28.4131 2.31241 30.7249 5.15375 30.7249H17.4974H18.288L18.8472 30.1668L24.4419 24.5721L25 24.0134V23.2229V5.15476C25 2.31289 22.6876 0 19.8452 0ZM23.0915 23.2228H20.2022C18.7091 23.2228 17.4974 24.434 17.4974 25.9276V28.8164H5.15375C3.3615 28.8164 1.90855 27.3629 1.90855 25.5712V5.15476C1.90855 3.36204 3.3615 1.90849 5.15375 1.90849H19.8452C21.638 1.90849 23.0915 3.36204 23.0915 5.15476V23.2228H23.0915Z" fill="#1B1A55"/>
</svg>
